[
    {
        "streams": [
            {
                "index": 0,
                "codec_name": "mp3",
                "codec_long_name": "MP3 (MPEG audio layer 3)",
                "codec_type": "audio",
                "codec_tag_string": "[0][0][0][0]",
                "codec_tag": "0x0000",
                "sample_fmt": "fltp",
                "sample_rate": "44100",
                "channels": 2,
                "channel_layout": "stereo",
                "bits_per_sample": 0,
                "initial_padding": 0,
                "r_frame_rate": "0/0",
                "avg_frame_rate": "0/0",
                "time_base": "1/14112000",
                "start_pts": 353600,
                "start_time": "0.025057",
                "duration_ts": 2478617920,
                "duration": "175.639025",
                "bit_rate": "320000",
                "disposition": {
                    "default": 0,
                    "dub": 0,
                    "original": 0,
                    "comment": 0,
                    "lyrics": 0,
                    "karaoke": 0,
                    "forced": 0,
                    "hearing_impaired": 0,
                    "visual_impaired": 0,
                    "clean_effects": 0,
                    "attached_pic": 0,
                    "timed_thumbnails": 0,
                    "non_diegetic": 0,
                    "captions": 0,
                    "descriptions": 0,
                    "metadata": 0,
                    "dependent": 0,
                    "still_image": 0,
                    "multilayer": 0
                },
                "tags": {
                    "encoder": "Lavc58.92"
                }
            },
            {
                "index": 1,
                "codec_name": "mjpeg",
                "codec_long_name": "Motion JPEG",
                "profile": "Baseline",
                "codec_type": "video",
                "codec_tag_string": "[0][0][0][0]",
                "codec_tag": "0x0000",
                "width": 1200,
                "height": 1200,
                "coded_width": 1200,
                "coded_height": 1200,
                "has_b_frames": 0,
                "sample_aspect_ratio": "1:1",
                "display_aspect_ratio": "1:1",
                "pix_fmt": "yuvj420p",
                "level": -99,
                "color_range": "pc",
                "color_space": "bt470bg",
                "chroma_location": "center",
                "refs": 1,
                "r_frame_rate": "90000/1",
                "avg_frame_rate": "0/0",
                "time_base": "1/90000",
                "start_pts": 2255,
                "start_time": "0.025056",
                "duration_ts": 15807512,
                "duration": "175.639022",
                "bits_per_raw_sample": "8",
                "disposition": {
                    "default": 0,
                    "dub": 0,
                    "original": 0,
                    "comment": 0,
                    "lyrics": 0,
                    "karaoke": 0,
                    "forced": 0,
                    "hearing_impaired": 0,
                    "visual_impaired": 0,
                    "clean_effects": 0,
                    "attached_pic": 1,
                    "timed_thumbnails": 0,
                    "non_diegetic": 0,
                    "captions": 0,
                    "descriptions": 0,
                    "metadata": 0,
                    "dependent": 0,
                    "still_image": 0,
                    "multilayer": 0
                },
                "tags": {
                    "comment": "Cover (front)"
                }
            }
        ],
        "format": {
            "filename": "..\\audio\\track0.mp3",
            "nb_streams": 2,
            "nb_programs": 0,
            "nb_stream_groups": 0,
            "format_name": "mp3",
            "format_long_name": "MP2/3 (MPEG audio layer 2/3)",
            "start_time": "0.025056",
            "duration": "175.639025",
            "size": "7451918",
            "bit_rate": "339419",
            "probe_score": 51,
            "tags": {
                "title": "Awware",
                "artist": "Double-F the King",
                "album": "Aware",
                "genre": "R and B",
                "composer": "Double-F the King",
                "track": "1",
                "date": "2021",
                "album_artist": "Double-F the King",
                "lyrics-   ": "I am aware I am aware \nI am aware I am aware \n\nAnd I won't pretend I don't see the way the world is going \nWe living so wrong everybody knows it \nStuck in a circle and we just keep on moving \nI'm tired of watching \nWe need a change \nThe whole world should go on a break \nAnd spread love for a change \n'Cause we need a love holiday \nLet us be one entity\n\nI am aware I am aware \nI am aware I am aware \nI am aware I am aware \nI am aware I am aware \nNo I won't turn a blind eye \nI am aware aware \n\nLet's turn it up to the sky \nAnd live life to max\nWe'll leave none behind\nIt's better with you and I \nTogether while we fly\nThe wind can't knock down\nI got your shoulder \nYou got mine \nCarry me when I'm going down\n\nI am aware I am aware \nI am aware I am aware \nNo I won't turn a blind eye \nI am aware aware",
                "language": "English",
                "comment": "@doubleftheking",
                "encoded_by": "Double-F the King",
                "encoder": "Lavf58.46.101",
                "disc": "1"
            }
        }
    },
    {
        "streams": [
            {
                "index": 0,
                "codec_name": "mp3",
                "codec_long_name": "MP3 (MPEG audio layer 3)",
                "codec_type": "audio",
                "codec_tag_string": "[0][0][0][0]",
                "codec_tag": "0x0000",
                "sample_fmt": "fltp",
                "sample_rate": "44100",
                "channels": 2,
                "channel_layout": "stereo",
                "bits_per_sample": 0,
                "initial_padding": 0,
                "r_frame_rate": "0/0",
                "avg_frame_rate": "0/0",
                "time_base": "1/14112000",
                "start_pts": 353600,
                "start_time": "0.025057",
                "duration_ts": 2502776320,
                "duration": "177.350930",
                "bit_rate": "320000",
                "disposition": {
                    "default": 0,
                    "dub": 0,
                    "original": 0,
                    "comment": 0,
                    "lyrics": 0,
                    "karaoke": 0,
                    "forced": 0,
                    "hearing_impaired": 0,
                    "visual_impaired": 0,
                    "clean_effects": 0,
                    "attached_pic": 0,
                    "timed_thumbnails": 0,
                    "non_diegetic": 0,
                    "captions": 0,
                    "descriptions": 0,
                    "metadata": 0,
                    "dependent": 0,
                    "still_image": 0,
                    "multilayer": 0
                },
                "tags": {
                    "encoder": "Lavc58.91"
                }
            },
            {
                "index": 1,
                "codec_name": "mjpeg",
                "codec_long_name": "Motion JPEG",
                "profile": "Baseline",
                "codec_type": "video",
                "codec_tag_string": "[0][0][0][0]",
                "codec_tag": "0x0000",
                "width": 1200,
                "height": 1200,
                "coded_width": 1200,
                "coded_height": 1200,
                "has_b_frames": 0,
                "sample_aspect_ratio": "1:1",
                "display_aspect_ratio": "1:1",
                "pix_fmt": "yuvj420p",
                "level": -99,
                "color_range": "pc",
                "color_space": "bt470bg",
                "chroma_location": "center",
                "refs": 1,
                "r_frame_rate": "90000/1",
                "avg_frame_rate": "0/0",
                "time_base": "1/90000",
                "start_pts": 2255,
                "start_time": "0.025056",
                "duration_ts": 15961584,
                "duration": "177.350933",
                "bits_per_raw_sample": "8",
                "disposition": {
                    "default": 0,
                    "dub": 0,
                    "original": 0,
                    "comment": 0,
                    "lyrics": 0,
                    "karaoke": 0,
                    "forced": 0,
                    "hearing_impaired": 0,
                    "visual_impaired": 0,
                    "clean_effects": 0,
                    "attached_pic": 1,
                    "timed_thumbnails": 0,
                    "non_diegetic": 0,
                    "captions": 0,
                    "descriptions": 0,
                    "metadata": 0,
                    "dependent": 0,
                    "still_image": 0,
                    "multilayer": 0
                },
                "tags": {
                    "comment": "Cover (front)"
                }
            }
        ],
        "format": {
            "filename": "..\\audio\\track1.mp3",
            "nb_streams": 2,
            "nb_programs": 0,
            "nb_stream_groups": 0,
            "format_name": "mp3",
            "format_long_name": "MP2/3 (MPEG audio layer 2/3)",
            "start_time": "0.025056",
            "duration": "177.350930",
            "size": "7311339",
            "bit_rate": "329802",
            "probe_score": 51,
            "tags": {
                "title": "Be My Girl",
                "artist": "Double-F the King",
                "album": "Heartstrings",
                "genre": "R&B",
                "composer": "Double-F the King",
                "track": "2",
                "date": "2021",
                "album_artist": "Double-F the King",
                "lyrics-   ": "Be my girl\nBe my life\nMake me sing that ladidada\nYou're the one\nThat I like\nWe can be up in the sky\nBe my girl\nBe my life\nMake me sing that ladidada\nYou're the one\nThat I like\nWe can be up in the sky\n\nCome and lay up with a G\nLet me give you what you need\nI can take away the grieve yeah \nReplace it with best of things\nI'm talking about a little peace\nWe don't need expensive things\nTake you down to see the trees\nYou gon' feel a lot of bliss \n\nBe my girl\nBe my life\nMake me sing that ladidada\nYou're the one\nThat I like\nWe can be up in the sky\n\nLet me take you to my spot\nShow you how to turn you up\nCause I am an expert with the buttons\nI'll keep you blushing to my touch\nI'm a keep it on time\nKeep rising 'til we get to the max\nGonna make you feel alright \nYou just gotta be in my life",
                "language": "English",
                "comment": "@doubleftheking on social media",
                "encoded_by": "Double-F the King",
                "encoder": "Lavf58.45.100",
                "disc": "1"
            }
        }
    },
    {
        "streams": [
            {
                "index": 0,
                "codec_name": "mp3",
                "codec_long_name": "MP3 (MPEG audio layer 3)",
                "codec_type": "audio",
                "codec_tag_string": "[0][0][0][0]",
                "codec_tag": "0x0000",
                "sample_fmt": "fltp",
                "sample_rate": "44100",
                "channels": 2,
                "channel_layout": "stereo",
                "bits_per_sample": 0,
                "initial_padding": 0,
                "r_frame_rate": "0/0",
                "avg_frame_rate": "0/0",
                "time_base": "1/14112000",
                "start_pts": 0,
                "start_time": "0.000000",
                "duration_ts": 6179144265,
                "duration": "437.864531",
                "bit_rate": "256000",
                "disposition": {
                    "default": 0,
                    "dub": 0,
                    "original": 0,
                    "comment": 0,
                    "lyrics": 0,
                    "karaoke": 0,
                    "forced": 0,
                    "hearing_impaired": 0,
                    "visual_impaired": 0,
                    "clean_effects": 0,
                    "attached_pic": 0,
                    "timed_thumbnails": 0,
                    "non_diegetic": 0,
                    "captions": 0,
                    "descriptions": 0,
                    "metadata": 0,
                    "dependent": 0,
                    "still_image": 0,
                    "multilayer": 0
                }
            }
        ],
        "format": {
            "filename": "..\\audio\\track2.mp3",
            "nb_streams": 1,
            "nb_programs": 0,
            "nb_stream_groups": 0,
            "format_name": "mp3",
            "format_long_name": "MP2/3 (MPEG audio layer 2/3)",
            "start_time": "0.000000",
            "duration": "437.864531",
            "size": "14013890",
            "bit_rate": "256040",
            "probe_score": 51,
            "tags": {
                "title": "Tribes Gathering",
                "artist": "Cooper-Moore and Assif Tsahar",
                "track": "2",
                "album": "tells untold",
                "disc": "1/1",
                "date": "2011-10-01T01:39:21",
                "genre": "Blues",
                "copyright": "Creative Commons Attribution-NonCommercial-NoDerivatives (aka Music Sharing): http://creativecommons.org/licenses/by-nc-nd/3.0/",
                "TDAT": "2011-10-01 1:39:21",
                "comment": "URL: http://freemusicarchive.org/music/Cooper-Moore__Assif_Tsahar/tells_untold/02_Tribes_Gathering\r\nComments: http://freemusicarchive.org/\r\nCurator: \r\nCopyright: Creative Commons Attribution-NonCommercial-NoDerivatives (aka Music Sharing): http://creativecommons.org/licenses/by-nc-nd/3.0/",
                "album_artist": "Digital Primitives"
            }
        }
    },
    {
        "streams": [
            {
                "index": 0,
                "codec_name": "mp3",
                "codec_long_name": "MP3 (MPEG audio layer 3)",
                "codec_type": "audio",
                "codec_tag_string": "[0][0][0][0]",
                "codec_tag": "0x0000",
                "sample_fmt": "fltp",
                "sample_rate": "44100",
                "channels": 2,
                "channel_layout": "stereo",
                "bits_per_sample": 0,
                "initial_padding": 0,
                "r_frame_rate": "0/0",
                "avg_frame_rate": "0/0",
                "time_base": "1/14112000",
                "start_pts": 353600,
                "start_time": "0.025057",
                "duration_ts": 3320816320,
                "duration": "235.318617",
                "bit_rate": "320000",
                "disposition": {
                    "default": 0,
                    "dub": 0,
                    "original": 0,
                    "comment": 0,
                    "lyrics": 0,
                    "karaoke": 0,
                    "forced": 0,
                    "hearing_impaired": 0,
                    "visual_impaired": 0,
                    "clean_effects": 0,
                    "attached_pic": 0,
                    "timed_thumbnails": 0,
                    "non_diegetic": 0,
                    "captions": 0,
                    "descriptions": 0,
                    "metadata": 0,
                    "dependent": 0,
                    "still_image": 0,
                    "multilayer": 0
                },
                "tags": {
                    "encoder": "LAME3.99r"
                }
            },
            {
                "index": 1,
                "codec_name": "mjpeg",
                "codec_long_name": "Motion JPEG",
                "profile": "Baseline",
                "codec_type": "video",
                "codec_tag_string": "[0][0][0][0]",
                "codec_tag": "0x0000",
                "width": 2000,
                "height": 2000,
                "coded_width": 2000,
                "coded_height": 2000,
                "has_b_frames": 0,
                "pix_fmt": "yuvj444p",
                "level": -99,
                "color_range": "pc",
                "color_space": "bt470bg",
                "chroma_location": "center",
                "refs": 1,
                "r_frame_rate": "90000/1",
                "avg_frame_rate": "0/0",
                "time_base": "1/90000",
                "start_pts": 2255,
                "start_time": "0.025056",
                "duration_ts": 21178676,
                "duration": "235.318622",
                "bits_per_raw_sample": "8",
                "disposition": {
                    "default": 0,
                    "dub": 0,
                    "original": 0,
                    "comment": 0,
                    "lyrics": 0,
                    "karaoke": 0,
                    "forced": 0,
                    "hearing_impaired": 0,
                    "visual_impaired": 0,
                    "clean_effects": 0,
                    "attached_pic": 1,
                    "timed_thumbnails": 0,
                    "non_diegetic": 0,
                    "captions": 0,
                    "descriptions": 0,
                    "metadata": 0,
                    "dependent": 0,
                    "still_image": 0,
                    "multilayer": 0
                },
                "tags": {
                    "comment": "Cover (front)"
                }
            }
        ],
        "format": {
            "filename": "..\\audio\\track3.mp3",
            "nb_streams": 2,
            "nb_programs": 0,
            "nb_stream_groups": 0,
            "format_name": "mp3",
            "format_long_name": "MP2/3 (MPEG audio layer 2/3)",
            "start_time": "0.025056",
            "duration": "235.318617",
            "size": "9907454",
            "bit_rate": "336818",
            "probe_score": 51,
            "tags": {
                "title": "No Home",
                "artist": "Cullah",
                "track": "10",
                "album": "Cullah The Wild",
                "date": "2017-06-30T04:03:03",
                "genre": "Blues",
                "copyright": "Attribution-ShareAlike: http://creativecommons.org/licenses/by-sa/4.0/",
                "TDAT": "2017-06-30 4:03:03",
                "comment": "URL: http://freemusicarchive.org/music/MC_Cullah/Cullah_The_Wild/10_-_No_Home\r\nComments: http://freemusicarchive.org/\r\nCurator: \r\nCopyright: Attribution-ShareAlike: http://creativecommons.org/licenses/by-sa/4.0/",
                "album_artist": "Cullah"
            }
        }
    },
    {
        "streams": [
            {
                "index": 0,
                "codec_name": "mp3",
                "codec_long_name": "MP3 (MPEG audio layer 3)",
                "codec_type": "audio",
                "codec_tag_string": "[0][0][0][0]",
                "codec_tag": "0x0000",
                "sample_fmt": "fltp",
                "sample_rate": "44100",
                "channels": 2,
                "channel_layout": "stereo",
                "bits_per_sample": 0,
                "initial_padding": 0,
                "r_frame_rate": "0/0",
                "avg_frame_rate": "0/0",
                "time_base": "1/14112000",
                "start_pts": 0,
                "start_time": "0.000000",
                "duration_ts": 2807268408,
                "duration": "198.927750",
                "bit_rate": "192000",
                "disposition": {
                    "default": 0,
                    "dub": 0,
                    "original": 0,
                    "comment": 0,
                    "lyrics": 0,
                    "karaoke": 0,
                    "forced": 0,
                    "hearing_impaired": 0,
                    "visual_impaired": 0,
                    "clean_effects": 0,
                    "attached_pic": 0,
                    "timed_thumbnails": 0,
                    "non_diegetic": 0,
                    "captions": 0,
                    "descriptions": 0,
                    "metadata": 0,
                    "dependent": 0,
                    "still_image": 0,
                    "multilayer": 0
                }
            },
            {
                "index": 1,
                "codec_name": "png",
                "codec_long_name": "PNG (Portable Network Graphics) image",
                "codec_type": "video",
                "codec_tag_string": "[0][0][0][0]",
                "codec_tag": "0x0000",
                "width": 464,
                "height": 464,
                "coded_width": 464,
                "coded_height": 464,
                "has_b_frames": 0,
                "sample_aspect_ratio": "1:1",
                "display_aspect_ratio": "1:1",
                "pix_fmt": "rgb24",
                "level": -99,
                "color_range": "pc",
                "color_space": "gbr",
                "refs": 1,
                "r_frame_rate": "90000/1",
                "avg_frame_rate": "0/0",
                "time_base": "1/90000",
                "duration_ts": 17903498,
                "duration": "198.927756",
                "disposition": {
                    "default": 0,
                    "dub": 0,
                    "original": 0,
                    "comment": 0,
                    "lyrics": 0,
                    "karaoke": 0,
                    "forced": 0,
                    "hearing_impaired": 0,
                    "visual_impaired": 0,
                    "clean_effects": 0,
                    "attached_pic": 1,
                    "timed_thumbnails": 0,
                    "non_diegetic": 0,
                    "captions": 0,
                    "descriptions": 0,
                    "metadata": 0,
                    "dependent": 0,
                    "still_image": 0,
                    "multilayer": 0
                },
                "tags": {
                    "comment": "Other"
                }
            }
        ],
        "format": {
            "filename": "..\\audio\\track4.mp3",
            "nb_streams": 2,
            "nb_programs": 0,
            "nb_stream_groups": 0,
            "format_name": "mp3",
            "format_long_name": "MP2/3 (MPEG audio layer 2/3)",
            "start_time": "0.000000",
            "duration": "198.927756",
            "size": "4834245",
            "bit_rate": "194412",
            "probe_score": 51,
            "tags": {
                "title": "The Power of Flight",
                "artist": "MC Cullah",
                "track": "12",
                "album": "E-MC Cullah",
                "date": "2015-05-01T16:05:35",
                "genre": "Hip-Hop",
                "copyright": "Attribution-Noncommercial-No Derivative Works 3.0 United States: http://creativecommons.org/licenses/by-nc-nd/3.0/us/",
                "comment": "URL: http://freemusicarchive.org/music/MC_Cullah_1450/E-MC_Cullah/The_Power_of_Flight_1044\r\nComments: http://freemusicarchive.org/\r\nCurator: \r\nCopyright: Attribution-Noncommercial-No Derivative Works 3.0 United States: http://creativecommons.org/licenses/by-nc-nd/3.0/us/",
                "TDAT": "2015-05-01 16:05:35",
                "TFLT": "audio/mp3",
                "album_artist": "Cullah"
            }
        }
    },
    {
        "streams": [
            {
                "index": 0,
                "codec_name": "mp3",
                "codec_long_name": "MP3 (MPEG audio layer 3)",
                "codec_type": "audio",
                "codec_tag_string": "[0][0][0][0]",
                "codec_tag": "0x0000",
                "sample_fmt": "fltp",
                "sample_rate": "44100",
                "channels": 2,
                "channel_layout": "stereo",
                "bits_per_sample": 0,
                "initial_padding": 0,
                "r_frame_rate": "0/0",
                "avg_frame_rate": "0/0",
                "time_base": "1/14112000",
                "start_pts": 0,
                "start_time": "0.000000",
                "duration_ts": 2575015128,
                "duration": "182.469893",
                "bit_rate": "224000",
                "disposition": {
                    "default": 0,
                    "dub": 0,
                    "original": 0,
                    "comment": 0,
                    "lyrics": 0,
                    "karaoke": 0,
                    "forced": 0,
                    "hearing_impaired": 0,
                    "visual_impaired": 0,
                    "clean_effects": 0,
                    "attached_pic": 0,
                    "timed_thumbnails": 0,
                    "non_diegetic": 0,
                    "captions": 0,
                    "descriptions": 0,
                    "metadata": 0,
                    "dependent": 0,
                    "still_image": 0,
                    "multilayer": 0
                }
            }
        ],
        "format": {
            "filename": "..\\audio\\track5.mp3",
            "nb_streams": 1,
            "nb_programs": 0,
            "nb_stream_groups": 0,
            "format_name": "mp3",
            "format_long_name": "MP2/3 (MPEG audio layer 2/3)",
            "start_time": "0.000000",
            "duration": "182.469893",
            "size": "5113253",
            "bit_rate": "224179",
            "probe_score": 51,
            "tags": {
                "title": "Soul Hip Hop",
                "artist": "MC Cullah",
                "track": "5",
                "album": "E-MC Cullah",
                "date": "2015-05-01T16:04:58",
                "genre": "Hip-Hop",
                "copyright": "Attribution-Noncommercial-No Derivative Works 3.0 United States: http://creativecommons.org/licenses/by-nc-nd/3.0/us/",
                "TDAT": "2015-05-01 16:04:58",
                "TBPM": "75",
                "comment": "URL: http://freemusicarchive.org/music/MC_Cullah_1450/E-MC_Cullah/Soul_Hip_Hop_1477\r\nComments: http://freemusicarchive.org/\r\nCurator: \r\nCopyright: Attribution-Noncommercial-No Derivative Works 3.0 United States: http://creativecommons.org/licenses/by-nc-nd/3.0/us/",
                "album_artist": "Cullah"
            }
        }
    }
]